<?xml version="1.0" encoding="UTF-8" standalone="no"?>
<!DOCTYPE svg PUBLIC "-//W3C//DTD SVG 1.1//EN"
 "http://www.w3.org/Graphics/SVG/1.1/DTD/svg11.dtd">
<!-- Generated by graphviz version 2.40.1 (20161225.0304)
 -->
<!-- Pages: 1 -->
<svg width="245pt" height="302pt"
 viewBox="0.00 0.00 245.50 302.00" xmlns="http://www.w3.org/2000/svg" xmlns:xlink="http://www.w3.org/1999/xlink">
<g id="graph0" class="graph" transform="scale(1 1) rotate(0) translate(4 298)">
<polygon fill="#ffffff" stroke="transparent" points="-4,4 -4,-298 241.499,-298 241.499,4 -4,4"/>
<!-- Storage &lt; 108 -->
<g id="node1" class="node">
<title>Storage &lt; 108</title>
<polygon fill="none" stroke="#000000" points="95,-294 0,-294 0,-258 95,-258 95,-294"/>
<text text-anchor="middle" x="47.5" y="-271.8" font-family="Times,serif" font-size="14.00" fill="#000000">Storage &lt; 108</text>
</g>
<!-- 0.121 -->
<g id="node2" class="node">
<title>0.121</title>
<polygon fill="none" stroke="#000000" points="58.5,-208 4.5,-208 4.5,-172 58.5,-172 58.5,-208"/>
<text text-anchor="middle" x="31.5" y="-185.8" font-family="Times,serif" font-size="14.00" fill="#000000">0.121</text>
</g>
<!-- Storage &lt; 108&#45;&gt;0.121 -->
<g id="edge1" class="edge">
<title>Storage &lt; 108&#45;&gt;0.121</title>
<path fill="none" stroke="#000000" d="M44.106,-257.76C41.964,-246.25 39.153,-231.14 36.729,-218.11"/>
<polygon fill="#000000" stroke="#000000" points="40.1573,-217.4015 34.888,-208.21 33.2753,-218.6814 40.1573,-217.4015"/>
<text text-anchor="middle" x="44.775" y="-228.8" font-family="Times,serif" font-size="14.00" fill="#000000">T</text>
</g>
<!-- Day &lt; 113 -->
<g id="node3" class="node">
<title>Day &lt; 113</title>
<polygon fill="none" stroke="#000000" points="150.999,-208 75.999,-208 75.999,-172 150.999,-172 150.999,-208"/>
<text text-anchor="middle" x="113.499" y="-185.8" font-family="Times,serif" font-size="14.00" fill="#000000">Day &lt; 113</text>
</g>
<!-- Storage &lt; 108&#45;&gt;Day &lt; 113 -->
<g id="edge2" class="edge">
<title>Storage &lt; 108&#45;&gt;Day &lt; 113</title>
<path fill="none" stroke="#000000" d="M61.496,-257.76C70.772,-245.68 83.086,-229.63 93.402,-216.19"/>
<polygon fill="#000000" stroke="#000000" points="96.2139,-218.2748 99.523,-208.21 90.6596,-214.0145 96.2139,-218.2748"/>
<text text-anchor="middle" x="88.393" y="-228.8" font-family="Times,serif" font-size="14.00" fill="#000000">F</text>
</g>
<!-- 1.000 -->
<g id="node4" class="node">
<title>1.000</title>
<polygon fill="none" stroke="#000000" points="109.5,-122 55.5,-122 55.5,-86 109.5,-86 109.5,-122"/>
<text text-anchor="middle" x="82.5" y="-99.8" font-family="Times,serif" font-size="14.00" fill="#000000">1.000</text>
</g>
<!-- Day &lt; 113&#45;&gt;1.000 -->
<g id="edge3" class="edge">
<title>Day &lt; 113&#45;&gt;1.000</title>
<path fill="none" stroke="#000000" d="M106.929,-171.76C102.729,-160.13 97.219,-144.84 92.492,-131.72"/>
<polygon fill="#000000" stroke="#000000" points="95.7477,-130.4306 89.064,-122.21 89.1625,-132.8044 95.7477,-130.4306"/>
<text text-anchor="middle" x="104.779" y="-142.8" font-family="Times,serif" font-size="14.00" fill="#000000">T</text>
</g>
<!-- Storage &lt; 241 -->
<g id="node5" class="node">
<title>Storage &lt; 241</title>
<polygon fill="none" stroke="#000000" points="221.999,-122 126.999,-122 126.999,-86 221.999,-86 221.999,-122"/>
<text text-anchor="middle" x="174.499" y="-99.8" font-family="Times,serif" font-size="14.00" fill="#000000">Storage &lt; 241</text>
</g>
<!-- Day &lt; 113&#45;&gt;Storage &lt; 241 -->
<g id="edge4" class="edge">
<title>Day &lt; 113&#45;&gt;Storage &lt; 241</title>
<path fill="none" stroke="#000000" d="M126.439,-171.76C134.929,-159.79 146.179,-143.93 155.659,-130.57"/>
<polygon fill="#000000" stroke="#000000" points="158.6562,-132.3937 161.579,-122.21 152.9435,-128.3483 158.6562,-132.3937"/>
<text text-anchor="middle" x="152.389" y="-142.8" font-family="Times,serif" font-size="14.00" fill="#000000">F</text>
</g>
<!-- 0.003 -->
<g id="node6" class="node">
<title>0.003</title>
<polygon fill="none" stroke="#000000" points="165.499,-36 111.499,-36 111.499,0 165.499,0 165.499,-36"/>
<text text-anchor="middle" x="138.499" y="-13.8" font-family="Times,serif" font-size="14.00" fill="#000000">0.003</text>
</g>
<!-- Storage &lt; 241&#45;&gt;0.003 -->
<g id="edge5" class="edge">
<title>Storage &lt; 241&#45;&gt;0.003</title>
<path fill="none" stroke="#000000" d="M166.869,-85.762C161.999,-74.132 155.589,-58.836 150.099,-45.72"/>
<polygon fill="#000000" stroke="#000000" points="153.2089,-44.085 146.119,-36.212 146.7518,-46.7879 153.2089,-44.085"/>
<text text-anchor="middle" x="163.779" y="-56.8" font-family="Times,serif" font-size="14.00" fill="#000000">T</text>
</g>
<!-- 0.509 -->
<g id="node7" class="node">
<title>0.509</title>
<polygon fill="none" stroke="#000000" points="237.499,-36 183.499,-36 183.499,0 237.499,0 237.499,-36"/>
<text text-anchor="middle" x="210.499" y="-13.8" font-family="Times,serif" font-size="14.00" fill="#000000">0.509</text>
</g>
<!-- Storage &lt; 241&#45;&gt;0.509 -->
<g id="edge6" class="edge">
<title>Storage &lt; 241&#45;&gt;0.509</title>
<path fill="none" stroke="#000000" d="M182.139,-85.762C186.999,-74.132 193.409,-58.836 198.899,-45.72"/>
<polygon fill="#000000" stroke="#000000" points="202.2462,-46.7879 202.879,-36.212 195.7891,-44.085 202.2462,-46.7879"/>
<text text-anchor="middle" x="198.389" y="-56.8" font-family="Times,serif" font-size="14.00" fill="#000000">F</text>
</g>
</g>
</svg>
